<?xml version="1.0" encoding="UTF-8"?>
<svg width="200" height="200" viewBox="0 0 200 200" version="1.1" xmlns="http://www.w3.org/2000/svg">
    <style>
        .book { fill: #e0e0e0; }
        .heart { fill: #bdbdbd; }
        .booklines { fill: #ffffff; stroke: #bdbdbd; stroke-width: 2; }
    </style>
    <!-- Stack of Books -->
    <g transform="translate(40,60)">
        <!-- Bottom Book -->
        <rect class="book" x="0" y="60" width="120" height="30" rx="2"/>
        <line class="booklines" x1="20" y1="70" x2="100" y2="70"/>
        <line class="booklines" x1="20" y1="80" x2="100" y2="80"/>
        
        <!-- Middle Book -->
        <rect class="book" x="10" y="30" width="120" height="30" rx="2"/>
        <line class="booklines" x1="30" y1="40" x2="110" y2="40"/>
        <line class="booklines" x1="30" y1="50" x2="110" y2="50"/>
        
        <!-- Top Book -->
        <rect class="book" x="0" y="0" width="120" height="30" rx="2"/>
        <line class="booklines" x1="20" y1="10" x2="100" y2="10"/>
        <line class="booklines" x1="20" y1="20" x2="100" y2="20"/>
    </g>
    
    <!-- Heart -->
    <g transform="translate(85,40)">
        <path class="heart" d="M15,5 C15,5 14,0 9,0 C4,0 0,5 0,8 C0,15 15,25 15,25 C15,25 30,15 30,8 C30,5 26,0 21,0 C16,0 15,5 15,5 Z"/>
    </g>
</svg>